# xmcd CD database file
#
# Track frame offsets:
#	150
#	13590
#	26897
#	41380
#	57364
#	72292
#	80475
#	94382
#	108190
#	121862
#
# Disc length: 1767 seconds
#
# Revision: 0
# Processed by: cddbd v1.4PL0 Copyright (c) Steve Scherf et al.
# Submitted via: CDex 1.50
#
DISCID=7d06e50a
DTITLE=Duke Ellington - Sophisticated Lady
DYEAR=1900
DGENRE=Jazz
TTITLE0=Sophisticated Lady
TTITLE1=C Jam Blues
TTITLE2=Jump for Joy
TTITLE3=Solitude
TTITLE4=Things Ain't What They Used to Be
TTITLE5=Do Nothing Till You Hear From Me
TTITLE6=Passion Flower
TTITLE7=Caravan
TTITLE8=Take the "A" Train
TTITLE9=Perdido
EXTD=
EXTT0=
EXTT1=
EXTT2=
EXTT3=
EXTT4=
EXTT5=
EXTT6=
EXTT7=
EXTT8=
EXTT9=
PLAYORDER=
